<?xml version="1.0" encoding="UTF-8"?>
<svg id="Layer_2" data-name="Layer 2" xmlns="http://www.w3.org/2000/svg" viewBox="0 0 397.35 397.35">
  <defs>
    <style>
      .cls-1 {
        fill: #fff;
      }
    </style>
  </defs>
  <g id="objects">
    <g>
      <path class="cls-1" d="M198.78,162.74c-19.8,0-35.94,16.14-35.94,35.94s16.14,35.94,35.94,35.94,35.94-16.14,35.94-35.94-16.14-35.94-35.94-35.94Z"/>
      <path class="cls-1" d="M248.99,112.43h-100.62c-19.84,0-35.94,16.1-35.94,35.94v100.62c0,19.84,16.1,35.94,35.94,35.94h100.62c19.84,0,35.94-16.1,35.94-35.94v-100.62c0-19.84-16.1-35.94-35.94-35.94ZM198.78,252.58c-29.75,0-53.9-24.15-53.9-53.9s24.15-53.9,53.9-53.9,53.9,24.15,53.9,53.9-24.15,53.9-53.9,53.9ZM256.28,151.96c-5.94,0-10.78-4.84-10.78-10.78s4.84-10.78,10.78-10.78,10.78,4.84,10.78,10.78-4.84,10.78-10.78,10.78Z"/>
      <path class="cls-1" d="M198.68,0h0C88.95,0,0,88.95,0,198.68h0c0,109.73,88.95,198.68,198.68,198.68h0c109.73,0,198.68-88.95,198.68-198.68h0C397.35,88.95,308.4,0,198.68,0ZM302.89,252.58c0,27.78-22.53,50.31-50.31,50.31h-107.81c-27.78,0-50.31-22.53-50.31-50.31v-107.81c0-27.78,22.53-50.31,50.31-50.31h107.81c27.78,0,50.31,22.53,50.31,50.31v107.81Z"/>
    </g>
  </g>
</svg>