<?xml version="1.0" encoding="UTF-8"?>
<svg id="Layer_2" data-name="Layer 2" xmlns="http://www.w3.org/2000/svg" viewBox="0 0 57.3 15.02">
  <defs>
    <style>
      .cls-1 {
        fill: #fff;
      }
    </style>
  </defs>
  <g id="Layer_1-2" data-name="Layer 1">
    <g>
      <path class="cls-1" d="M5.63,4.37v3.85c0,.22-.08.31-.27.36-.98.2-1.97.24-2.57.24-1.78,0-2.76-.12-2.79-2,.02-1.59.85-1.88,2.44-1.88h1.23v-.24c0-.47-.29-.66-.85-.66H.63c-.11,0-.14-.03-.14-.17v-1.14c0-.13.04-.16.14-.18.71-.14,1.39-.19,2.19-.19,2.45,0,2.81.82,2.81,2.01ZM2.63,6.1c-.56,0-.7.19-.7.58,0,.45.18.57.79.57.16,0,.67-.02.95-.09v-1.06h-1.04Z"/>
      <path class="cls-1" d="M12.51,0c.13,0,.17.04.17.18v8.08c0,.2-.1.3-.26.32-.88.15-1.8.24-2.54.24-2.46,0-3.04-.68-3.04-3.22s.57-3.23,2.57-3.23c.45,0,.87.02,1.32.07V.18c0-.13.03-.18.17-.18h1.61ZM9.92,4.05c-1,0-1.14.26-1.14,1.54,0,1.11.06,1.54,1.05,1.54.19,0,.62-.02.9-.08v-3.01h-.81Z"/>
      <path class="cls-1" d="M19.99,2.42c.1,0,.17.06.14.18l-1.27,4.87c-.32,1.23-.53,1.35-1.98,1.35s-1.62-.11-1.96-1.35l-1.3-4.87c-.02-.12.03-.18.14-.18h1.72c.1,0,.11.06.16.18l1.06,4.49c.03.14.06.17.16.17.12,0,.14-.02.18-.17l1.06-4.49c.03-.12.04-.18.16-.18h1.72Z"/>
      <path class="cls-1" d="M26.73,5.56v.35c0,.23-.08.3-.34.3h-3.49c.01.83.29.93,1.16.93h2.06c.11,0,.17.06.17.17v1.14c0,.13-.06.17-.16.19-.63.13-1.51.18-2.28.18-2.34,0-2.94-.64-2.94-3.22s.6-3.23,2.94-3.23,2.88.64,2.88,3.2ZM22.89,5.02h1.88c0-.76-.27-.98-.92-.98s-.96.22-.96.98Z"/>
      <path class="cls-1" d="M30.9,2.36h-.28c-2.19,0-2.73.48-2.74,2.66h0v3.56c0,.12.04.18.16.18h1.64c.11,0,.17-.06.17-.18v-3.69c.06-.73.26-.84.91-.85.65.01.85.13.91.85v3.69c0,.12.06.18.17.18h1.64c.11,0,.16-.06.16-.18v-3.5c0-2.24-.53-2.72-2.74-2.72Z"/>
      <path class="cls-1" d="M37.2.67c.11-.03.17.06.17.18v1.61h.96c.13,0,.19.06.19.17v1.09c0,.12-.06.18-.19.18h-.96v2.68c0,.48.19.56.64.56h.43c.12,0,.19.06.19.17v1.16c0,.14-.07.2-.19.22-.47.09-.81.12-1.11.12-1.05,0-1.9-.04-1.9-1.53v-3.39h-.67c-.12,0-.19-.06-.19-.18v-1.09c0-.11.07-.17.19-.17h.67v-1.19c0-.12.04-.15.16-.18l1.62-.42Z"/>
      <path class="cls-1" d="M45.22,2.42c.11,0,.16.06.16.18v5.83c0,.15-.03.17-.16.19-.7.13-1.86.2-2.85.2-2.22,0-2.75-.48-2.75-2.73v-3.49c0-.12.07-.18.18-.18h1.61c.11,0,.17.06.17.18v2.9c0,1.56.09,1.65,1.1,1.65h.75V2.6c0-.12.06-.18.17-.18h1.63Z"/>
      <path class="cls-1" d="M50.53,2.5c.13.02.19.08.19.23v1.14c0,.11-.07.17-.19.17h-1.11c-.48,0-.68.08-.68.56v3.98c0,.12-.06.18-.17.18h-1.62c-.11,0-.17-.06-.17-.18v-4.51c0-1.49.95-1.71,2.15-1.71.35,0,1.13.03,1.6.13Z"/>
      <path class="cls-1" d="M57.3,5.56v.35c0,.23-.08.3-.34.3h-3.49c.01.83.29.93,1.16.93h2.06c.11,0,.17.06.17.17v1.14c0,.13-.06.17-.16.19-.63.13-1.51.18-2.28.18-2.34,0-2.94-.64-2.94-3.22s.6-3.23,2.94-3.23,2.88.64,2.88,3.2ZM53.47,5.02h1.88c0-.76-.27-.98-.92-.98s-.96.22-.96.98Z"/>
    </g>
    <g>
      <path class="cls-1" d="M11.89,13.48c0-.91.66-1.53,1.49-1.53.48,0,.83.21,1.09.52l-.21.14c-.19-.26-.51-.43-.87-.43-.69,0-1.23.53-1.23,1.3s.54,1.3,1.23,1.3c.36,0,.69-.17.87-.43l.21.13c-.26.32-.61.53-1.09.53-.83,0-1.49-.62-1.49-1.53Z"/>
      <path class="cls-1" d="M17.11,11.95c.87,0,1.44.67,1.44,1.53s-.57,1.53-1.44,1.53-1.44-.67-1.44-1.53.57-1.53,1.44-1.53ZM17.11,12.18c-.72,0-1.17.55-1.17,1.3s.45,1.3,1.17,1.3,1.17-.55,1.17-1.3-.46-1.3-1.17-1.3Z"/>
      <path class="cls-1" d="M22.09,14.96l-1.87-2.56v2.56h-.25v-2.96h.26l1.86,2.52v-2.52h.25v2.96h-.25Z"/>
      <path class="cls-1" d="M23.87,14.35c.19.22.5.43.92.43.61,0,.78-.34.78-.59,0-.42-.4-.53-.81-.64-.47-.13-.96-.26-.96-.81,0-.48.44-.79.97-.79.44,0,.77.16,1,.42l-.17.19c-.21-.26-.51-.37-.85-.37-.4,0-.69.23-.69.55,0,.35.37.45.77.56.48.14,1,.29,1,.89,0,.38-.25.84-1.05.84-.49,0-.86-.2-1.08-.47l.16-.19Z"/>
      <path class="cls-1" d="M27.25,12h.26v1.82c0,.6.32.96.9.96s.9-.36.9-.96v-1.82h.26v1.83c0,.73-.39,1.19-1.15,1.19s-1.15-.46-1.15-1.19v-1.83Z"/>
      <path class="cls-1" d="M31.09,14.96v-2.96h.25v2.73h1.43v.23h-1.69Z"/>
      <path class="cls-1" d="M34.44,14.96v-2.73h-.97v-.23h2.19v.23h-.97v2.73h-.26Z"/>
      <path class="cls-1" d="M36.99,14.96v-2.96h.25v2.96h-.25Z"/>
      <path class="cls-1" d="M40.89,14.96l-1.87-2.56v2.56h-.25v-2.96h.26l1.86,2.52v-2.52h.25v2.96h-.25Z"/>
      <path class="cls-1" d="M44.07,11.95c.49,0,.84.2,1.11.51l-.19.14c-.21-.25-.55-.41-.92-.41-.7,0-1.23.53-1.23,1.3s.54,1.31,1.23,1.31c.4,0,.71-.2.87-.36v-.71h-1.12v-.23h1.37v1.03c-.26.29-.66.49-1.12.49-.83,0-1.5-.62-1.5-1.54s.67-1.53,1.5-1.53Z"/>
    </g>
  </g>
</svg>